<svg xmlns="http://www.w3.org/2000/svg" xmlns:xlink="http://www.w3.org/1999/xlink" contentStyleType="text/css" data-diagram-type="DESCRIPTION" height="440px" preserveAspectRatio="none" style="width:1202px;height:440px;background:#FFFFFF;" version="1.1" viewBox="0 0 1202 440" width="1202px" zoomAndPan="magnify"><title>MediChain System Architecture</title><defs/><g><g class="title" data-source-line="1"><text fill="#000000" font-family="sans-serif" font-size="14" font-weight="bold" lengthAdjust="spacing" textLength="249.1152" x="469.4424" y="22.9951">MediChain System Architecture</text></g><!--cluster Frontend Layer (React + Vite)--><g class="cluster" data-entity="Frontend Layer .React . Vite." data-source-line="8" data-uid="ent0002" id="cluster_Frontend Layer .React . Vite."><path d="M8.5,43.2969 L246.1807,43.2969 A3.75,3.75 0 0 1 248.6807,45.7969 L255.6807,65.5938 L646.5,65.5938 A2.5,2.5 0 0 1 649,68.0938 L649,127.7969 A2.5,2.5 0 0 1 646.5,130.2969 L8.5,130.2969 A2.5,2.5 0 0 1 6,127.7969 L6,45.7969 A2.5,2.5 0 0 1 8.5,43.2969" fill="none" style="stroke:#000000;stroke-width:1.5;"/><line style="stroke:#000000;stroke-width:1.5;" x1="6" x2="255.6807" y1="65.5938" y2="65.5938"/><text fill="#000000" font-family="sans-serif" font-size="14" font-weight="bold" lengthAdjust="spacing" textLength="236.6807" x="10" y="58.292">Frontend Layer (React + Vite)</text></g><!--cluster Backend Layer (Node + Express)--><g class="cluster" data-entity="Backend Layer .Node . Express." data-source-line="16" data-uid="ent0007" id="cluster_Backend Layer .Node . Express."><path d="M675.5,43.2969 L934.1602,43.2969 A3.75,3.75 0 0 1 936.6602,45.7969 L943.6602,65.5938 L1033.5,65.5938 A2.5,2.5 0 0 1 1036,68.0938 L1036,319.7969 A2.5,2.5 0 0 1 1033.5,322.2969 L675.5,322.2969 A2.5,2.5 0 0 1 673,319.7969 L673,45.7969 A2.5,2.5 0 0 1 675.5,43.2969" fill="none" style="stroke:#000000;stroke-width:1.5;"/><line style="stroke:#000000;stroke-width:1.5;" x1="673" x2="943.6602" y1="65.5938" y2="65.5938"/><text fill="#000000" font-family="sans-serif" font-size="14" font-weight="bold" lengthAdjust="spacing" textLength="257.6602" x="677" y="58.292">Backend Layer (Node + Express)</text></g><!--cluster Blockchain Layer (Polygon Amoy)--><g class="cluster" data-entity="Blockchain Layer .Polygon Amoy." data-source-line="24" data-uid="ent0012" id="cluster_Blockchain Layer .Polygon Amoy."><path d="M556.5,346.2969 L821.5654,346.2969 A3.75,3.75 0 0 1 824.0654,348.7969 L831.0654,368.5938 L831.5,368.5938 A2.5,2.5 0 0 1 834,371.0938 L834,430.7969 A2.5,2.5 0 0 1 831.5,433.2969 L556.5,433.2969 A2.5,2.5 0 0 1 554,430.7969 L554,348.7969 A2.5,2.5 0 0 1 556.5,346.2969" fill="none" style="stroke:#000000;stroke-width:1.5;"/><line style="stroke:#000000;stroke-width:1.5;" x1="554" x2="831.0654" y1="368.5938" y2="368.5938"/><text fill="#000000" font-family="sans-serif" font-size="14" font-weight="bold" lengthAdjust="spacing" textLength="264.0654" x="558" y="361.292">Blockchain Layer (Polygon Amoy)</text></g><!--cluster Database Layer (PostgreSQL - Neon)--><g class="cluster" data-entity="Database Layer .PostgreSQL - Neon." data-source-line="29" data-uid="ent0014" id="cluster_Database Layer .PostgreSQL - Neon."><path d="M860.5,346.2969 L1151.0293,346.2969 A3.75,3.75 0 0 1 1153.5293,348.7969 L1160.5293,368.5938 L1192.5,368.5938 A2.5,2.5 0 0 1 1195,371.0938 L1195,430.7969 A2.5,2.5 0 0 1 1192.5,433.2969 L860.5,433.2969 A2.5,2.5 0 0 1 858,430.7969 L858,348.7969 A2.5,2.5 0 0 1 860.5,346.2969" fill="none" style="stroke:#000000;stroke-width:1.5;"/><line style="stroke:#000000;stroke-width:1.5;" x1="858" x2="1160.5293" y1="368.5938" y2="368.5938"/><text fill="#000000" font-family="sans-serif" font-size="14" font-weight="bold" lengthAdjust="spacing" textLength="289.5293" x="862" y="361.292">Database Layer (PostgreSQL - Neon)</text></g><!--entity Manufacturer UI--><g class="entity" data-entity="Manufacturer UI" data-source-line="9" data-uid="ent0003" id="entity_Manufacturer UI"><rect fill="#F1F1F1" height="36.2969" rx="2.5" ry="2.5" style="stroke:#181818;stroke-width:0.5;" width="132.9229" x="499.5" y="78.2969"/><text fill="#000000" font-family="sans-serif" font-size="14" lengthAdjust="spacing" textLength="112.9229" x="509.5" y="101.292">Manufacturer UI</text></g><!--entity Shipment UI--><g class="entity" data-entity="Shipment UI" data-source-line="10" data-uid="ent0004" id="entity_Shipment UI"><rect fill="#F1F1F1" height="36.2969" rx="2.5" ry="2.5" style="stroke:#181818;stroke-width:0.5;" width="105.9756" x="358" y="78.2969"/><text fill="#000000" font-family="sans-serif" font-size="14" lengthAdjust="spacing" textLength="85.9756" x="368" y="101.292">Shipment UI</text></g><!--entity Receiver UI--><g class="entity" data-entity="Receiver UI" data-source-line="11" data-uid="ent0005" id="entity_Receiver UI"><rect fill="#F1F1F1" height="36.2969" rx="2.5" ry="2.5" style="stroke:#181818;stroke-width:0.5;" width="100.0215" x="223" y="78.2969"/><text fill="#000000" font-family="sans-serif" font-size="14" lengthAdjust="spacing" textLength="80.0215" x="233" y="101.292">Receiver UI</text></g><!--entity Public Verification UI--><g class="entity" data-entity="Public Verification UI" data-source-line="12" data-uid="ent0006" id="entity_Public Verification UI"><rect fill="#F1F1F1" height="36.2969" rx="2.5" ry="2.5" style="stroke:#181818;stroke-width:0.5;" width="164.7031" x="22.5" y="78.2969"/><text fill="#000000" font-family="sans-serif" font-size="14" lengthAdjust="spacing" textLength="144.7031" x="32.5" y="101.292">Public Verification UI</text></g><!--entity REST API Controller--><g class="entity" data-entity="REST API Controller" data-source-line="17" data-uid="ent0008" id="entity_REST API Controller"><rect fill="#F1F1F1" height="36.2969" rx="2.5" ry="2.5" style="stroke:#181818;stroke-width:0.5;" width="156.2334" x="689" y="174.2969"/><text fill="#000000" font-family="sans-serif" font-size="14" lengthAdjust="spacing" textLength="136.2334" x="699" y="197.292">REST API Controller</text></g><!--entity Blockchain Service--><g class="entity" data-entity="Blockchain Service" data-source-line="18" data-uid="ent0009" id="entity_Blockchain Service"><rect fill="#F1F1F1" height="36.2969" rx="2.5" ry="2.5" style="stroke:#181818;stroke-width:0.5;" width="151.9678" x="689" y="270.2969"/><text fill="#000000" font-family="sans-serif" font-size="14" lengthAdjust="spacing" textLength="131.9678" x="699" y="293.292">Blockchain Service</text></g><!--entity Database Service--><g class="entity" data-entity="Database Service" data-source-line="19" data-uid="ent0010" id="entity_Database Service"><rect fill="#F1F1F1" height="36.2969" rx="2.5" ry="2.5" style="stroke:#181818;stroke-width:0.5;" width="142.9922" x="876.5" y="270.2969"/><text fill="#000000" font-family="sans-serif" font-size="14" lengthAdjust="spacing" textLength="122.9922" x="886.5" y="293.292">Database Service</text></g><!--entity IoT Simulator--><g class="entity" data-entity="IoT Simulator" data-source-line="20" data-uid="ent0011" id="entity_IoT Simulator"><rect fill="#F1F1F1" height="36.2969" rx="2.5" ry="2.5" style="stroke:#181818;stroke-width:0.5;" width="113.2627" x="710.5" y="78.2969"/><text fill="#000000" font-family="sans-serif" font-size="14" lengthAdjust="spacing" textLength="93.2627" x="720.5" y="101.292">IoT Simulator</text></g><!--entity MediChain Smart Contract--><g class="entity" data-entity="MediChain Smart Contract" data-source-line="25" data-uid="ent0013" id="entity_MediChain Smart Contract"><rect fill="#F1F1F1" height="36.2969" rx="2.5" ry="2.5" style="stroke:#181818;stroke-width:0.5;" width="204.9326" x="613.5" y="381.2969"/><text fill="#000000" font-family="sans-serif" font-size="14" lengthAdjust="spacing" textLength="184.9326" x="623.5" y="404.292">MediChain Smart Contract</text></g><!--entity Batch Records--><g class="entity" data-entity="Batch Records" data-source-line="30" data-uid="ent0015" id="entity_Batch Records"><rect fill="#F1F1F1" height="36.2969" rx="2.5" ry="2.5" style="stroke:#181818;stroke-width:0.5;" width="121.2334" x="1057.5" y="381.2969"/><text fill="#000000" font-family="sans-serif" font-size="14" lengthAdjust="spacing" textLength="101.2334" x="1067.5" y="404.292">Batch Records</text></g><!--entity Shipment Records--><g class="entity" data-entity="Shipment Records" data-source-line="31" data-uid="ent0016" id="entity_Shipment Records"><rect fill="#F1F1F1" height="36.2969" rx="2.5" ry="2.5" style="stroke:#181818;stroke-width:0.5;" width="148.1396" x="874" y="381.2969"/><text fill="#000000" font-family="sans-serif" font-size="14" lengthAdjust="spacing" textLength="128.1396" x="884" y="404.292">Shipment Records</text></g><!--link Manufacturer UI to REST API Controller--><g class="link" data-entity-1="Manufacturer UI" data-entity-2="REST API Controller" data-source-line="35" data-uid="lnk17" id="link_Manufacturer UI_REST API Controller"><path d="M623,114.5369 C623,139.7769 623,182.2969 623,182.2969 C623,182.2969 648.9,182.2969 682.68,182.2969" fill="none" id="Manufacturer UI-to-REST API Controller" style="stroke:#181818;stroke-width:1;"/><polygon fill="#181818" points="688.68,182.2969,679.68,178.2969,683.68,182.2969,679.68,186.2969,688.68,182.2969" style="stroke:#181818;stroke-width:1;"/></g><!--link Shipment UI to REST API Controller--><g class="link" data-entity-1="Shipment UI" data-entity-2="REST API Controller" data-source-line="36" data-uid="lnk18" id="link_Shipment UI_REST API Controller"><path d="M411,114.6669 C411,141.7769 411,189.2969 411,189.2969 C411,189.2969 578.08,189.2969 682.87,189.2969" fill="none" id="Shipment UI-to-REST API Controller" style="stroke:#181818;stroke-width:1;"/><polygon fill="#181818" points="688.87,189.2969,679.87,185.2969,683.87,189.2969,679.87,193.2969,688.87,189.2969" style="stroke:#181818;stroke-width:1;"/></g><!--link Receiver UI to REST API Controller--><g class="link" data-entity-1="Receiver UI" data-entity-2="REST API Controller" data-source-line="37" data-uid="lnk19" id="link_Receiver UI_REST API Controller"><path d="M273,114.6369 C273,143.5069 273,196.2969 273,196.2969 C273,196.2969 543.79,196.2969 683,196.2969" fill="none" id="Receiver UI-to-REST API Controller" style="stroke:#181818;stroke-width:1;"/><polygon fill="#181818" points="689,196.2969,680,192.2969,684,196.2969,680,200.2969,689,196.2969" style="stroke:#181818;stroke-width:1;"/></g><!--link Public Verification UI to REST API Controller--><g class="link" data-entity-1="Public Verification UI" data-entity-2="REST API Controller" data-source-line="38" data-uid="lnk20" id="link_Public Verification UI_REST API Controller"><path d="M105,114.4469 C105,144.9769 105,203.2969 105,203.2969 C105,203.2969 507.61,203.2969 682.79,203.2969" fill="none" id="Public Verification UI-to-REST API Controller" style="stroke:#181818;stroke-width:1;"/><polygon fill="#181818" points="688.79,203.2969,679.79,199.2969,683.79,203.2969,679.79,207.2969,688.79,203.2969" style="stroke:#181818;stroke-width:1;"/></g><!--link REST API Controller to Blockchain Service--><g class="link" data-entity-1="REST API Controller" data-entity-2="Blockchain Service" data-source-line="40" data-uid="lnk21" id="link_REST API Controller_Blockchain Service"><path d="M765,210.3569 C765,227.4069 765,246.8569 765,263.9969" fill="none" id="REST API Controller-to-Blockchain Service" style="stroke:#181818;stroke-width:1;"/><polygon fill="#181818" points="765,269.9969,769,260.9969,765,264.9969,761,260.9969,765,269.9969" style="stroke:#181818;stroke-width:1;"/></g><!--link REST API Controller to Database Service--><g class="link" data-entity-1="REST API Controller" data-entity-2="Database Service" data-source-line="41" data-uid="lnk22" id="link_REST API Controller_Database Service"><path d="M845.07,192.2969 C894.06,192.2969 948,192.2969 948,192.2969 C948,192.2969 948,236.4269 948,264.2369" fill="none" id="REST API Controller-to-Database Service" style="stroke:#181818;stroke-width:1;"/><polygon fill="#181818" points="948,270.2369,952,261.2369,948,265.2369,944,261.2369,948,270.2369" style="stroke:#181818;stroke-width:1;"/></g><!--link IoT Simulator to REST API Controller--><g class="link" data-entity-1="IoT Simulator" data-entity-2="REST API Controller" data-source-line="43" data-uid="lnk23" id="link_IoT Simulator_REST API Controller"><path d="M767,114.3569 C767,131.4069 767,150.8569 767,167.9969" fill="none" id="IoT Simulator-to-REST API Controller" style="stroke:#181818;stroke-width:1;"/><polygon fill="#181818" points="767,173.9969,771,164.9969,767,168.9969,763,164.9969,767,173.9969" style="stroke:#181818;stroke-width:1;"/></g><!--link Blockchain Service to MediChain Smart Contract--><g class="link" data-entity-1="Blockchain Service" data-entity-2="MediChain Smart Contract" data-source-line="45" data-uid="lnk24" id="link_Blockchain Service_MediChain Smart Contract"><path d="M753.75,306.6269 C753.75,327.1969 753.75,354.3669 753.75,374.9369" fill="none" id="Blockchain Service-to-MediChain Smart Contract" style="stroke:#181818;stroke-width:1;"/><polygon fill="#181818" points="753.75,380.9369,757.75,371.9369,753.75,375.9369,749.75,371.9369,753.75,380.9369" style="stroke:#181818;stroke-width:1;"/></g><!--link Database Service to Batch Records--><g class="link" data-entity-1="Database Service" data-entity-2="Batch Records" data-source-line="47" data-uid="lnk25" id="link_Database Service_Batch Records"><path d="M1019.6,288.2969 C1066.06,288.2969 1118,288.2969 1118,288.2969 C1118,288.2969 1118,343.4369 1118,374.9669" fill="none" id="Database Service-to-Batch Records" style="stroke:#181818;stroke-width:1;"/><polygon fill="#181818" points="1118,380.9669,1122,371.9669,1118,375.9669,1114,371.9669,1118,380.9669" style="stroke:#181818;stroke-width:1;"/></g><!--link Database Service to Shipment Records--><g class="link" data-entity-1="Database Service" data-entity-2="Shipment Records" data-source-line="48" data-uid="lnk26" id="link_Database Service_Shipment Records"><path d="M948,306.6269 C948,327.1969 948,354.3669 948,374.9369" fill="none" id="Database Service-to-Shipment Records" style="stroke:#181818;stroke-width:1;"/><polygon fill="#181818" points="948,380.9369,952,371.9369,948,375.9369,944,371.9369,948,380.9369" style="stroke:#181818;stroke-width:1;"/></g><!--SRC=[VPBBRjim44Nt_8f1DcrHv1SAIBA22d5arrApARgOK6E9C4KAGpgjKFJVozhnAtfeHSrSuXxENA-y9dYYIYKDAWD5xpor4B5ib2Vfzqn2k9qo7JAs86tRMKF65xuFzpWeqDIQhYIkmSh-KgQ6BMfttT7AaEyx0ik-iK9yWFjt7pniLdcPvej1HtGeTrWJt3smDPvC1KliYU7ZXb1w-0pFWVVJ7VmH03-UqEotUA1d-9xz_5yh6jMrWVpqlo59wlNIN-zVj9BmJAosIg9NrXnQVqT1uoXvdEUCm-4ACxSL1ShqTyVat0bqanObHEiCal0ejbeJ7s1YRULE7ZT2_Aea7SeBzFY2ZcwAcIsXKErUexSyoRjS9O_9roZBvv0lhc_KQwlxEWmYQcr_7kubB2soFwA7OKzPBw8oYgCYdJ4-l-jiwtpDL7nRmZtaPCt9EqOl6mYhirovsxMUY-CKoIhFqwJCLdan11a49aY-J6pd9aXpkkk0pUacWZTpHOoMZnV6aZCZ7oPAl0lKBCU8sr4_7H8nz7mZlztjb6omy7y0]--></g></svg>